static pose
version=1
nRows=1
nColumns=111
inDegrees=no
endheader
time	/jointset/radioulnar/pro_sup/value	/jointset/radioulnar/pro_sup/speed	/jointset/rotaxis-auxprfem/rotaxis_auxprfem_r3/value	/jointset/rotaxis-auxprfem/rotaxis_auxprfem_r3/speed	/jointset/auxprfem-auxprrud/auxprfem-auxprrud_coord/value	/jointset/auxprfem-auxprrud/auxprfem-auxprrud_coord/speed	/jointset/auxprrud-auxdrfem/auxprrud_auxdrfem_r3/value	/jointset/auxprrud-auxdrfem/auxprrud_auxdrfem_r3/speed	/jointset/auxdrfem-auxdrrud/auxdrfem_auxdrrud_r1/value	/jointset/auxdrfem-auxdrrud/auxdrfem_auxdrrud_r1/speed	/jointset/Wrist/deviation/value	/jointset/Wrist/deviation/speed	/jointset/Wrist/flexion/value	/jointset/Wrist/flexion/speed	/jointset/initpos/init_x_rot/value	/jointset/initpos/init_x_rot/speed	/jointset/initpos/init_y_rot/value	/jointset/initpos/init_y_rot/speed	/jointset/initpos/init_z_rot/value	/jointset/initpos/init_z_rot/speed	/jointset/initpos/init_x_tran/value	/jointset/initpos/init_x_tran/speed	/jointset/initpos/init_y_tran/value	/jointset/initpos/init_y_tran/speed	/jointset/initpos/init_z_tran/value	/jointset/initpos/init_z_tran/speed	/jointset/elbow_new/elbow/value	/jointset/elbow_new/elbow/speed	/jointset/CMC1/thumb_flex/value	/jointset/CMC1/thumb_flex/speed	/jointset/CMC1/thumb_abd/value	/jointset/CMC1/thumb_abd/speed	/jointset/MCP1/MCP1_flex/value	/jointset/MCP1/MCP1_flex/speed	/jointset/MCP1/MCP1_abd/value	/jointset/MCP1/MCP1_abd/speed	/jointset/IP/IP/value	/jointset/IP/IP/speed	/jointset/MCP2/MCP2_abd/value	/jointset/MCP2/MCP2_abd/speed	/jointset/MCP2/MCP2_flex/value	/jointset/MCP2/MCP2_flex/speed	/jointset/PIP2/PIP2/value	/jointset/PIP2/PIP2/speed	/jointset/DIP2/DIP2/value	/jointset/DIP2/DIP2/speed	/jointset/MCP3/MCP3_abd/value	/jointset/MCP3/MCP3_abd/speed	/jointset/MCP3/MCP3_flex/value	/jointset/MCP3/MCP3_flex/speed	/jointset/PIP3/PIP3/value	/jointset/PIP3/PIP3/speed	/jointset/DIP3/DIP3/value	/jointset/DIP3/DIP3/speed	/jointset/MCP4/MCP4_abd/value	/jointset/MCP4/MCP4_abd/speed	/jointset/MCP4/MCP4_flex/value	/jointset/MCP4/MCP4_flex/speed	/jointset/PIP4/PIP4/value	/jointset/PIP4/PIP4/speed	/jointset/DIP4/DIP4/value	/jointset/DIP4/DIP4/speed	/jointset/MCP5/MCP5_abd/value	/jointset/MCP5/MCP5_abd/speed	/jointset/MCP5/MCP5_flex/value	/jointset/MCP5/MCP5_flex/speed	/jointset/PIP5/PIP5/value	/jointset/PIP5/PIP5/speed	/jointset/DIP5/DIP5/value	/jointset/DIP5/DIP5/speed	/jointset/Cylindertoground/Cylinder_x_rot/value	/jointset/Cylindertoground/Cylinder_x_rot/speed	/jointset/Cylindertoground/Cylinder_y_rot/value	/jointset/Cylindertoground/Cylinder_y_rot/speed	/jointset/Cylindertoground/Cylinder_z_rot/value	/jointset/Cylindertoground/Cylinder_z_rot/speed	/jointset/Cylindertoground/Cylinder_x_tran/value	/jointset/Cylindertoground/Cylinder_x_tran/speed	/jointset/Cylindertoground/Cylinder_y_tran/value	/jointset/Cylindertoground/Cylinder_y_tran/speed	/jointset/Cylindertoground/Cylinder_z_tran/value	/jointset/Cylindertoground/Cylinder_z_tran/speed	/forceset/FCR/activation	/forceset/FCR/fiber_length	/forceset/FCU/activation	/forceset/FCU/fiber_length	/forceset/ECU/activation	/forceset/ECU/fiber_length	/forceset/ED5/activation	/forceset/ED5/fiber_length	/forceset/ED4/activation	/forceset/ED4/fiber_length	/forceset/ED3/activation	/forceset/ED3/fiber_length	/forceset/ED2/activation	/forceset/ED2/fiber_length	/forceset/ECRL/activation	/forceset/ECRL/fiber_length	/forceset/EI/activation	/forceset/EI/fiber_length	/forceset/ABPL/activation	/forceset/ABPL/fiber_length	/forceset/FDS2/activation	/forceset/FDS2/fiber_length	/forceset/FDS3/activation	/forceset/FDS3/fiber_length	/forceset/FDS4/activation	/forceset/FDS4/fiber_length	/forceset/FDS5/activation	/forceset/FDS5/fiber_length
      0.00000000	      1.61979053	      0.00000000	     -0.05077995	      0.00000000	      0.18624137	      0.00000000	     -0.05078008	      0.00000000	      0.18624137	      0.00000000	      0.37248322	      0.00000000	     -0.10156017	      0.00000000	      1.15140098	      0.00000000	      2.63763336	      0.00000000	      0.39782479	      0.00000000	      0.78522017	      0.00000000	      0.07500801	      0.00000000	      0.38512921	      0.00000000	      0.52359878	      0.00000000	      0.34654445	      0.00000000	      0.30675902	      0.00000000	      0.07079087	      0.00000000	      0.00389103	      0.00000000	      0.07685536	      0.00000000	     -0.21850372	      0.00000000	      0.51283836	      0.00000000	      0.00012582	      0.00000000	      0.00012408	      0.00000000	      0.04720774	      0.00000000	      0.45025579	      0.00000000	      0.00015053	      0.00000000	      0.00004682	      0.00000000	      0.16671484	      0.00000000	      0.40988090	      0.00000000	      0.00011682	      0.00000000	      0.00011976	      0.00000000	      0.37835806	      0.00000000	      0.44606961	      0.00000000	      0.00012085	      0.00000000	      0.00004974	      0.00000000	      0.00000000	      0.00000000	      0.00000000	      0.00000000	      0.00000000	      0.00000000	      0.00000000	      0.00000000	      0.00000000	      0.00000000	      0.00000000	      0.00000000	      0.05000000	      0.10000000	      0.05000000	      0.10000000	      0.05000000	      0.10000000	      0.05000000	      0.10000000	      0.05000000	      0.10000000	      0.05000000	      0.10000000	      0.05000000	      0.10000000	      0.05000000	      0.10000000	      0.05000000	      0.10000000	      0.05000000	      0.10000000	      0.05000000	      0.10000000	      0.05000000	      0.10000000	      0.05000000	      0.10000000	      0.05000000	      0.10000000
